<svg width="1131" height="1264" viewBox="0 0 1131 1264" fill="none" xmlns="http://www.w3.org/2000/svg">
<rect width="1131" height="1264" fill="white"/>
<rect x="34.5" y="761.5" width="245" height="445" rx="13.5" fill="url(#paint0_linear_210_957)" stroke="#8C0003" stroke-width="5"/>
<mask id="mask0_210_957" style="mask-type:alpha" maskUnits="userSpaceOnUse" x="32" y="423" width="500" height="320">
<rect x="32" y="423" width="500" height="320" rx="16" fill="#D9D9D9"/>
</mask>
<g mask="url(#mask0_210_957)">
<path d="M269.778 591.533L317.556 628.867L307 564.333L269.778 591.533Z" fill="#F28EBD" stroke="#F28EBD" stroke-linejoin="bevel"/>
<path d="M317.556 628.867L350.889 580.333L307 564.333L317.556 628.867Z" fill="#F79CBB" stroke="#F79CBB" stroke-linejoin="bevel"/>
<path d="M347 548.867L308.667 537.667L307 564.333L347 548.867Z" fill="#9B5EE7" stroke="#9B5EE7" stroke-linejoin="bevel"/>
<path d="M307 564.333L251.444 525.4L269.778 591.533L307 564.333Z" fill="#F79CBB" stroke="#F79CBB" stroke-linejoin="bevel"/>
<path d="M269.778 591.533L267 648.067L317.556 628.867L269.778 591.533Z" fill="#715DF2" stroke="#715DF2" stroke-linejoin="bevel"/>
<path d="M350.889 580.333L347 548.867L307 564.333L350.889 580.333Z" fill="#EA80C2" stroke="#EA80C2" stroke-linejoin="bevel"/>
<path d="M368.667 693.933L374.222 637.933L317.556 628.867L368.667 693.933Z" fill="#F7CACA" stroke="#F7CACA" stroke-linejoin="bevel"/>
<path d="M317.556 628.867L374.222 637.933L350.889 580.333L317.556 628.867Z" fill="#F79CBB" stroke="#F79CBB" stroke-linejoin="bevel"/>
<path d="M350.889 580.333L416.444 544.6L347 548.867L350.889 580.333Z" fill="#F9BBC2" stroke="#F9BBC2" stroke-linejoin="bevel"/>
<path d="M267 648.067L292.556 679.533L317.556 628.867L267 648.067Z" fill="#9B5EE7" stroke="#9B5EE7" stroke-linejoin="bevel"/>
<path d="M308.667 537.667L251.444 525.4L307 564.333L308.667 537.667Z" fill="#715DF2" stroke="#715DF2" stroke-linejoin="bevel"/>
<path d="M269.778 591.533L209.222 636.867L267 648.067L269.778 591.533Z" fill="#F9ACBD" stroke="#F9ACBD" stroke-linejoin="bevel"/>
<path d="M179.222 573.4L209.222 636.867L269.778 591.533L179.222 573.4Z" fill="#EA80C2" stroke="#EA80C2" stroke-linejoin="bevel"/>
<path d="M267 648.067L269.222 695.533L292.556 679.533L267 648.067Z" fill="#9B5EE7" stroke="#9B5EE7" stroke-linejoin="bevel"/>
<path d="M200.333 679.533L269.222 695.533L267 648.067L200.333 679.533Z" fill="#9B5EE7" stroke="#9B5EE7" stroke-linejoin="bevel"/>
<path d="M292.556 679.533L368.667 693.933L317.556 628.867L292.556 679.533Z" fill="#715DF2" stroke="#715DF2" stroke-linejoin="bevel"/>
<path d="M308.667 537.667L261.444 494.467L251.444 525.4L308.667 537.667Z" fill="#F9BBC2" stroke="#F9BBC2" stroke-linejoin="bevel"/>
<path d="M251.444 525.4L179.222 573.4L269.778 591.533L251.444 525.4Z" fill="#9B5EE7" stroke="#9B5EE7" stroke-linejoin="bevel"/>
<path d="M328.111 483.8L261.444 494.467L308.667 537.667L328.111 483.8Z" fill="#F79CBB" stroke="#F79CBB" stroke-linejoin="bevel"/>
<path d="M374.222 637.933L423.111 594.2L350.889 580.333L374.222 637.933Z" fill="#CE6AD2" stroke="#CE6AD2" stroke-linejoin="bevel"/>
<path d="M347 548.867L328.111 483.8L308.667 537.667L347 548.867Z" fill="#DE74C9" stroke="#DE74C9" stroke-linejoin="bevel"/>
<path d="M327 743L368.667 693.933L292.556 679.533L327 743Z" fill="#F7CACA" stroke="#F7CACA" stroke-linejoin="bevel"/>
<path d="M374.222 637.933L432.555 635.267L423.111 594.2L374.222 637.933Z" fill="#DE74C9" stroke="#DE74C9" stroke-linejoin="bevel"/>
<path d="M416.444 544.6L328.111 483.8L347 548.867L416.444 544.6Z" fill="#F79CBB" stroke="#F79CBB" stroke-linejoin="bevel"/>
<path d="M423.111 594.2L416.444 544.6L350.889 580.333L423.111 594.2Z" fill="#F7CACA" stroke="#F7CACA" stroke-linejoin="bevel"/>
<path d="M261.444 494.467L205.889 520.067L251.444 525.4L261.444 494.467Z" fill="#F9BBC2" stroke="#F9BBC2" stroke-linejoin="bevel"/>
<path d="M205.889 520.067L179.222 573.4L251.444 525.4L205.889 520.067Z" fill="#DE74C9" stroke="#DE74C9" stroke-linejoin="bevel"/>
<path d="M409.222 704.6L432.555 635.267L374.222 637.933L409.222 704.6Z" fill="#F9ACBD" stroke="#F9ACBD" stroke-linejoin="bevel"/>
<path d="M423.111 594.2L463.667 598.467L416.444 544.6L423.111 594.2Z" fill="#9B5EE7" stroke="#9B5EE7" stroke-linejoin="bevel"/>
<path d="M209.222 636.867L200.333 679.533L267 648.067L209.222 636.867Z" fill="#F9ACBD" stroke="#F9ACBD" stroke-linejoin="bevel"/>
<path d="M127 652.333L200.333 679.533L209.222 636.867L127 652.333Z" fill="#9B5EE7" stroke="#9B5EE7" stroke-linejoin="bevel"/>
<path d="M416.444 544.6L347 459.267L328.111 483.8L416.444 544.6Z" fill="#F79CBB" stroke="#F79CBB" stroke-linejoin="bevel"/>
<path d="M328.111 483.8L273.111 423L261.444 494.467L328.111 483.8Z" fill="#DE74C9" stroke="#DE74C9" stroke-linejoin="bevel"/>
<path d="M260.333 743H327L269.222 695.533L260.333 743Z" fill="#DE74C9" stroke="#DE74C9" stroke-linejoin="bevel"/>
<path d="M269.222 695.533L327 743L292.556 679.533L269.222 695.533Z" fill="#DE74C9" stroke="#DE74C9" stroke-linejoin="bevel"/>
<path d="M368.667 693.933L409.222 704.6L374.222 637.933L368.667 693.933Z" fill="#EA80C2" stroke="#EA80C2" stroke-linejoin="bevel"/>
<path d="M376.444 743L409.222 704.6L368.667 693.933L376.444 743Z" fill="#715DF2" stroke="#715DF2" stroke-linejoin="bevel"/>
<path d="M127 547.267L148.111 587.8L179.222 573.4L127 547.267Z" fill="#F79CBB" stroke="#F79CBB" stroke-linejoin="bevel"/>
<path d="M179.222 573.4L148.111 587.8L209.222 636.867L179.222 573.4Z" fill="#F9BBC2" stroke="#F9BBC2" stroke-linejoin="bevel"/>
<path d="M200.333 743H260.333L269.222 695.533L200.333 743Z" fill="#F28EBD" stroke="#F28EBD" stroke-linejoin="bevel"/>
<path d="M485.333 628.333L463.667 598.467L432.556 635.267L485.333 628.333Z" fill="#CE6AD2" stroke="#CE6AD2" stroke-linejoin="bevel"/>
<path d="M432.556 635.267L463.667 598.467L423.111 594.2L432.556 635.267Z" fill="#F79CBB" stroke="#F79CBB" stroke-linejoin="bevel"/>
<path d="M416.444 544.6L437 468.867L347 459.267L416.444 544.6Z" fill="#F28EBD" stroke="#F28EBD" stroke-linejoin="bevel"/>
<path d="M327 743H376.444L368.667 693.933L327 743Z" fill="#DE74C9" stroke="#DE74C9" stroke-linejoin="bevel"/>
<path d="M261.444 494.467L207.556 458.733L205.889 520.067L261.444 494.467Z" fill="#9B5EE7" stroke="#9B5EE7" stroke-linejoin="bevel"/>
<path d="M205.889 520.067L127 547.267L179.222 573.4L205.889 520.067Z" fill="#F28EBD" stroke="#F28EBD" stroke-linejoin="bevel"/>
<path d="M273.111 423L207.556 458.733L261.445 494.467L273.111 423Z" fill="#F9BBC2" stroke="#F9BBC2" stroke-linejoin="bevel"/>
<path d="M475.333 743L458.667 678.467L409.222 704.6L475.333 743Z" fill="#F9ACBD" stroke="#F9ACBD" stroke-linejoin="bevel"/>
<path d="M409.222 704.6L458.667 678.467L432.555 635.267L409.222 704.6Z" fill="#715DF2" stroke="#715DF2" stroke-linejoin="bevel"/>
<path d="M347 459.267L307.556 423L328.111 483.8L347 459.267Z" fill="#715DF2" stroke="#715DF2" stroke-linejoin="bevel"/>
<path d="M159.778 743H200.333V679.533L159.778 743Z" fill="#F28EBD" stroke="#F28EBD" stroke-linejoin="bevel"/>
<path d="M200.333 679.533V743L269.222 695.533L200.333 679.533Z" fill="#F28EBD" stroke="#F28EBD" stroke-linejoin="bevel"/>
<path d="M458.667 678.467L485.333 628.333L432.556 635.267L458.667 678.467Z" fill="#9B5EE7" stroke="#9B5EE7" stroke-linejoin="bevel"/>
<path d="M307.556 423H273.111L328.111 483.8L307.556 423Z" fill="#F7CACA" stroke="#F7CACA" stroke-linejoin="bevel"/>
<path d="M123.111 480.067L127 547.267L205.889 520.067L123.111 480.067Z" fill="#B963DC" stroke="#B963DC" stroke-linejoin="bevel"/>
<path d="M148.111 587.8L127 652.333L209.222 636.867L148.111 587.8Z" fill="#DE74C9" stroke="#DE74C9" stroke-linejoin="bevel"/>
<path d="M90.8889 628.333L127 652.333L148.111 587.8L90.8889 628.333Z" fill="#F7CACA" stroke="#F7CACA" stroke-linejoin="bevel"/>
<path d="M376.444 743H414.222L409.222 704.6L376.444 743Z" fill="#F9ACBD" stroke="#F9ACBD" stroke-linejoin="bevel"/>
<path d="M485.889 544.6H416.444L463.667 598.467L485.889 544.6Z" fill="#DE74C9" stroke="#DE74C9" stroke-linejoin="bevel"/>
<path d="M462.555 490.2L437 468.867L416.444 544.6L462.555 490.2Z" fill="#DE74C9" stroke="#DE74C9" stroke-linejoin="bevel"/>
<path d="M347 459.267L374.222 423H307.556L347 459.267Z" fill="#CE6AD2" stroke="#CE6AD2" stroke-linejoin="bevel"/>
<path d="M532 567L485.889 544.6L463.667 598.467L532 567Z" fill="#EA80C2" stroke="#EA80C2" stroke-linejoin="bevel"/>
<path d="M485.889 544.6L462.555 490.2L416.444 544.6H485.889Z" fill="#B963DC" stroke="#B963DC" stroke-linejoin="bevel"/>
<path d="M407 423H374.222L347 459.267L407 423Z" fill="#F9ACBD" stroke="#F9ACBD" stroke-linejoin="bevel"/>
<path d="M273.111 423H218.111L207.556 458.733L273.111 423Z" fill="#F9BBC2" stroke="#F9BBC2" stroke-linejoin="bevel"/>
<path d="M207.556 458.733L123.111 480.067L205.889 520.067L207.556 458.733Z" fill="#CE6AD2" stroke="#CE6AD2" stroke-linejoin="bevel"/>
<path d="M127 652.333L129.778 704.6L200.333 679.533L127 652.333Z" fill="#EA80C2" stroke="#EA80C2" stroke-linejoin="bevel"/>
<path d="M129.778 704.6L159.778 743L200.333 679.533L129.778 704.6Z" fill="#F9ACBD" stroke="#F9ACBD" stroke-linejoin="bevel"/>
<path d="M493.667 423H407L437 468.867L493.667 423Z" fill="#F9ACBD" stroke="#F9ACBD" stroke-linejoin="bevel"/>
<path d="M437 468.867L407 423L347 459.267L437 468.867Z" fill="#EA80C2" stroke="#EA80C2" stroke-linejoin="bevel"/>
<path d="M127 652.333L103.667 674.733L129.778 704.6L127 652.333Z" fill="#B963DC" stroke="#B963DC" stroke-linejoin="bevel"/>
<path d="M86.4443 580.867L90.8888 628.333L148.111 587.8L86.4443 580.867Z" fill="#F28EBD" stroke="#F28EBD" stroke-linejoin="bevel"/>
<path d="M90.8889 628.333L103.667 674.733L127 652.333L90.8889 628.333Z" fill="#DE74C9" stroke="#DE74C9" stroke-linejoin="bevel"/>
<path d="M129.778 704.6L81.4443 743H159.778L129.778 704.6Z" fill="#F79CBB" stroke="#F79CBB" stroke-linejoin="bevel"/>
<path d="M89.2221 536.6L86.4443 580.867L127 547.267L89.2221 536.6Z" fill="#CE6AD2" stroke="#CE6AD2" stroke-linejoin="bevel"/>
<path d="M127 547.267L86.4443 580.867L148.111 587.8L127 547.267Z" fill="#F9BBC2" stroke="#F9BBC2" stroke-linejoin="bevel"/>
<path d="M137 423L123.111 480.067L207.556 458.733L137 423Z" fill="#9B5EE7" stroke="#9B5EE7" stroke-linejoin="bevel"/>
<path d="M123.111 480.067L89.2222 536.6L127 547.267L123.111 480.067Z" fill="#EA80C2" stroke="#EA80C2" stroke-linejoin="bevel"/>
<path d="M414.222 743H475.333L409.222 704.6L414.222 743Z" fill="#F9ACBD" stroke="#F9ACBD" stroke-linejoin="bevel"/>
<path d="M532 682.733V644.333L485.333 628.333L532 682.733Z" fill="#715DF2" stroke="#715DF2" stroke-linejoin="bevel"/>
<path d="M532 644.333V567L485.333 628.333L532 644.333Z" fill="#B963DC" stroke="#B963DC" stroke-linejoin="bevel"/>
<path d="M485.333 628.333L532 567L463.667 598.467L485.333 628.333Z" fill="#F9BBC2" stroke="#F9BBC2" stroke-linejoin="bevel"/>
<path d="M485.889 544.6L532 471L462.556 490.2L485.889 544.6Z" fill="#715DF2" stroke="#715DF2" stroke-linejoin="bevel"/>
<path d="M462.556 490.2L493.667 423L437 468.867L462.556 490.2Z" fill="#B963DC" stroke="#B963DC" stroke-linejoin="bevel"/>
<path d="M532 682.733L485.333 628.333L458.667 678.467L532 682.733Z" fill="#F7CACA" stroke="#F7CACA" stroke-linejoin="bevel"/>
<path d="M532 567V547.8L485.889 544.6L532 567Z" fill="#F9ACBD" stroke="#F9ACBD" stroke-linejoin="bevel"/>
<path d="M96.4445 423L93.6667 481.133L123.111 480.067L96.4445 423Z" fill="#F9ACBD" stroke="#F9ACBD" stroke-linejoin="bevel"/>
<path d="M123.111 480.067L93.6666 481.133L89.2222 536.6L123.111 480.067Z" fill="#F28EBD" stroke="#F28EBD" stroke-linejoin="bevel"/>
<path d="M475.333 743L532 682.733L458.667 678.467L475.333 743Z" fill="#F7CACA" stroke="#F7CACA" stroke-linejoin="bevel"/>
<path d="M218.111 423H137L207.556 458.733L218.111 423Z" fill="#F9ACBD" stroke="#F9ACBD" stroke-linejoin="bevel"/>
<path d="M532 471L493.667 423L462.556 490.2L532 471Z" fill="#CE6AD2" stroke="#CE6AD2" stroke-linejoin="bevel"/>
<path d="M532 547.8V471L485.889 544.6L532 547.8Z" fill="#CE6AD2" stroke="#CE6AD2" stroke-linejoin="bevel"/>
<path d="M32 640.067L103.667 674.733L90.8889 628.333L32 640.067Z" fill="#F7CACA" stroke="#F7CACA" stroke-linejoin="bevel"/>
<path d="M32 685.933L81.4444 743L103.667 674.733L32 685.933Z" fill="#F79CBB" stroke="#F79CBB" stroke-linejoin="bevel"/>
<path d="M103.667 674.733L81.4443 743L129.778 704.6L103.667 674.733Z" fill="#715DF2" stroke="#715DF2" stroke-linejoin="bevel"/>
<path d="M32 526.467V592.067L86.4444 580.867L32 526.467Z" fill="#F9ACBD" stroke="#F9ACBD" stroke-linejoin="bevel"/>
<path d="M86.4444 580.867L32 592.067L90.8889 628.333L86.4444 580.867Z" fill="#F28EBD" stroke="#F28EBD" stroke-linejoin="bevel"/>
<path d="M32 526.467L86.4444 580.867L89.2222 536.6L32 526.467Z" fill="#DE74C9" stroke="#DE74C9" stroke-linejoin="bevel"/>
<path d="M475.333 743H532V682.733L475.333 743Z" fill="#9B5EE7" stroke="#9B5EE7" stroke-linejoin="bevel"/>
<path d="M32 592.067V640.067L90.8889 628.333L32 592.067Z" fill="#DE74C9" stroke="#DE74C9" stroke-linejoin="bevel"/>
<path d="M137 423H96.4443L123.111 480.067L137 423Z" fill="#F9ACBD" stroke="#F9ACBD" stroke-linejoin="bevel"/>
<path d="M32 493.933V526.467L89.2222 536.6L32 493.933Z" fill="#F7CACA" stroke="#F7CACA" stroke-linejoin="bevel"/>
<path d="M32 493.933L89.2222 536.6L93.6667 481.133L32 493.933Z" fill="#F9ACBD" stroke="#F9ACBD" stroke-linejoin="bevel"/>
<path d="M32 640.067V685.933L103.667 674.733L32 640.067Z" fill="#F9ACBD" stroke="#F9ACBD" stroke-linejoin="bevel"/>
<path d="M532 471V423H493.667L532 471Z" fill="#F79CBB" stroke="#F79CBB" stroke-linejoin="bevel"/>
<path d="M32 423V493.933L93.6667 481.133L32 423Z" fill="#9B5EE7" stroke="#9B5EE7" stroke-linejoin="bevel"/>
<path d="M32 685.933V743H81.4444L32 685.933Z" fill="#F9ACBD" stroke="#F9ACBD" stroke-linejoin="bevel"/>
<path d="M96.4444 423H32L93.6667 481.133L96.4444 423Z" fill="#F7CACA" stroke="#F7CACA" stroke-linejoin="bevel"/>
</g>
<rect x="34.5" y="425.5" width="495" height="315" rx="13.5" stroke="#F3DEB4" stroke-width="5"/>
<rect x="34.5" y="34.5" width="370" height="370" rx="13.5" fill="#88FFD4" stroke="#CCCCCC" stroke-width="5"/>
<defs>
<linearGradient id="paint0_linear_210_957" x1="157" y1="759" x2="157" y2="1209" gradientUnits="userSpaceOnUse">
<stop stop-color="#FA0092"/>
<stop offset="1" stop-color="#FA5D4A"/>
</linearGradient>
</defs>
</svg>
